<?xml version="1.0" encoding="UTF-8" standalone="no"?>
<!-- Created with Inkscape (http://www.inkscape.org/) -->

<svg
   width="210mm"
   height="202mm"
   viewBox="0 0 210 202"
   version="1.1"
   id="svg45"
   inkscape:version="1.1 (c68e22c387, 2021-05-23)"
   sodipodi:docname="ezTrack.svg"
   xmlns:inkscape="http://www.inkscape.org/namespaces/inkscape"
   xmlns:sodipodi="http://sodipodi.sourceforge.net/DTD/sodipodi-0.dtd"
   xmlns="http://www.w3.org/2000/svg"
   xmlns:svg="http://www.w3.org/2000/svg">
  <sodipodi:namedview
     id="namedview47"
     pagecolor="#ffffff"
     bordercolor="#666666"
     borderopacity="1.0"
     inkscape:pageshadow="2"
     inkscape:pageopacity="0.0"
     inkscape:pagecheckerboard="0"
     inkscape:document-units="mm"
     showgrid="false"
     height="296mm"
     inkscape:zoom="0.76791526"
     inkscape:cx="-16.277838"
     inkscape:cy="560.60873"
     inkscape:window-width="3200"
     inkscape:window-height="1771"
     inkscape:window-x="2391"
     inkscape:window-y="-9"
     inkscape:window-maximized="1"
     inkscape:current-layer="layer1" />
  <defs
     id="defs42" />
  <g
     inkscape:label="Layer 1"
     inkscape:groupmode="layer"
     id="layer1">
    <path
       style="fill:#000000;stroke-width:0.240467"
       d="m 139.66245,199.02688 c -5.3889,-1.41406 -9.09309,-3.49517 -11.72761,-6.58889 -4.42454,-5.19575 -6.41333,-9.99363 -6.67534,-16.10399 -0.15744,-3.67181 0.1386,-6.01124 1.26448,-9.99228 1.50584,-5.32456 4.01708,-9.22259 9.84678,-15.28446 3.40683,-3.5425 8.14195,-7.94048 10.74793,-9.98266 2.05979,-1.61417 9.1209,-6.38642 12.3532,-8.34891 l 2.93793,-1.78378 -0.16632,-1.24141 c -0.82219,-6.13646 -4.20769,-14.71237 -6.98477,-17.69332 -1.80346,-1.93584 -4.07066,-3.07678 -6.11397,-3.07678 -2.08972,0 -4.34892,1.15383 -6.49791,3.31863 -3.62172,3.64839 -6.53897,11.75594 -7.57849,21.06192 -0.8295,7.42595 -1.5323,10.82118 -2.7415,13.24426 -0.96346,1.93064 -3.31503,3.38445 -5.7638,3.56335 -3.02917,0.2213 -4.94873,-0.8504 -6.26738,-3.49913 -0.65471,-1.31508 -0.70514,-1.60299 -0.67383,-3.84738 0.0202,-1.44941 0.17501,-2.81653 0.38454,-3.39629 0.7469,-2.06665 2.99296,-7.57282 3.50763,-8.59889 1.62797,-3.2456 4.83618,-14.17702 6.91,-23.54462 0.54646,-2.46838 1.25934,-5.57963 1.58419,-6.91389 1.18051,-4.848731 2.7098,-12.282931 2.9634,-14.405691 0.48272,-4.040661 -0.52771,-7.926466 -2.5253,-9.711512 -1.11499,-0.996347 -2.71105,-1.085689 -4.57544,-0.256117 -3.00734,1.338132 -5.86006,5.772711 -9.04668,14.063139 -2.41914,6.29369 -6.51571,18.472421 -8.89452,26.442591 -1.07707,3.6087 -3.969,11.69441 -4.90225,13.70648 -3.300007,7.11476 -7.492738,12.48926 -11.659107,14.94539 -5.207142,3.06968 -13.538558,4.39835 -19.642005,3.13247 -5.695002,-1.18117 -11.40728,-4.32634 -14.712702,-8.10078 l -1.220999,-1.39425 -3.068725,1.20041 c -3.587906,1.40351 -5.408775,1.85182 -9.118424,2.24502 -7.977257,0.84556 -15.82845,-1.04808 -22.128543,-5.33721 -3.840527,-2.61466 -6.848557,-6.57755 -9.041429,-11.91157 -2.4063012,-5.85309 -3.3071146,-10.86226 -3.1184281,-17.34059 0.1728354,-5.93417 0.9354472,-8.543351 3.3805291,-11.566111 1.259928,-1.55758 1.975531,-1.89778 3.991993,-1.89778 2.113534,0 3.354486,0.86646 4.516741,3.15371 0.453074,0.89161 0.570708,1.56031 0.641932,3.649091 0.07721,2.26428 -0.0041,2.93167 -0.709166,5.82222 -0.723579,2.96635 -0.794102,3.57525 -0.771525,6.66109 0.03274,4.47425 0.480846,6.82573 1.840318,9.65715 2.167611,4.51455 6.038554,7.83414 11.119557,9.53578 1.93492,0.64801 2.235169,0.67882 6.674104,0.68496 5.190672,0.007 6.58052,-0.23796 9.100986,-1.6052 1.051825,-0.57057 1.369715,-0.86123 1.256455,-1.14881 -0.0834,-0.21175 -0.563551,-1.64041 -1.067025,-3.17481 -1.346748,-4.1044 -1.758693,-7.3142 -1.759081,-13.70648 -4.77e-4,-7.84611 0.61529,-11.89174 2.990854,-19.650001 1.114421,-3.63954 2.889919,-8.34932 3.612384,-9.5824 5.409373,-9.232528 10.254699,-13.902056 16.494801,-15.896322 4.405229,-1.407864 7.777076,-1.672268 10.913733,-0.855803 2.794781,0.727474 4.397672,1.60579 6.057966,3.319507 2.892349,2.98542 4.250439,7.201724 4.522652,14.040958 0.140383,3.52701 0.117278,3.78088 -0.739607,8.12684 -1.241911,6.29877 -2.209205,9.203761 -4.91613,14.764191 -2.611484,5.3644 -6.485628,11.52138 -9.331602,14.83025 -1.917985,2.22994 -7.870438,8.06151 -9.914011,9.71267 -0.693962,0.5607 -1.230273,1.11067 -1.191804,1.22215 0.155232,0.44985 2.806985,2.25765 4.598803,3.13519 1.048789,0.51364 2.912611,1.18111 4.141826,1.48327 2.094703,0.51492 2.420507,0.53236 5.192349,0.27786 2.686251,-0.24665 3.138655,-0.36083 4.93417,-1.24534 4.982408,-2.45443 8.927343,-9.12676 12.783148,-21.62098 2.460407,-7.97263 6.967522,-22.020401 7.977972,-24.865741 0.5686,-1.60111 1.11067,-3.18403 1.20462,-3.51759 0.26544,-0.94247 2.70189,-6.721088 3.6311,-8.612036 1.07986,-2.197482 4.007,-6.683204 5.41732,-8.301796 1.47813,-1.696426 4.75347,-3.887126 7.5198,-5.029596 2.03303,-0.83963 2.52455,-0.94442 4.91255,-1.047352 2.40555,-0.103689 2.82874,-0.05461 4.52887,0.525273 4.65732,1.58853 8.16845,6.046687 9.74104,12.368374 0.49998,2.009886 0.59475,2.948923 0.5876,5.822221 -0.01,4.000092 -0.37916,6.336992 -1.99309,12.615012 -0.61326,2.38552 -1.07209,4.381011 -1.0196,4.434421 0.0524,0.0535 0.84503,-0.290491 1.76125,-0.764201 1.68804,-0.8728 4.24941,-1.56694 5.81028,-1.57463 1.46305,-0.007 4.53634,0.91345 6.65264,1.99291 4.04555,2.063491 7.99766,7.125581 11.0499,14.153371 1.63058,3.75442 3.34654,9.07387 3.63095,11.25596 0.0882,0.67669 0.24322,1.28247 0.34449,1.34618 0.10127,0.0637 1.07931,-0.31204 2.17342,-0.83496 1.09412,-0.52291 3.7055,-1.68041 5.80307,-2.57221 13.3621,-5.68097 19.65284,-9.23529 23.2137,-13.11591 4.10748,-4.47634 4.81982,-9.03095 2.51528,-16.082741 -1.10651,-3.38591 -3.51967,-8.76737 -4.9269,-10.987241 -0.45046,-0.710586 -1.17785,-1.892387 -1.61644,-2.626235 -0.43859,-0.733838 -1.65793,-2.535086 -2.70965,-4.002774 -1.05172,-1.467684 -1.92665,-2.695957 -1.94429,-2.729498 -0.0177,-0.03354 -0.88108,0.16309 -1.91876,0.436952 -1.67368,0.441711 -2.57612,0.496236 -7.99267,0.482916 -7.9385,-0.01953 -13.68604,-0.741395 -17.44951,-2.191584 -2.92752,-1.128074 -5.96288,-3.782379 -7.90825,-6.91545 -1.26052,-2.030108 -3.16507,-6.016071 -3.8126,-7.979292 -0.38512,-1.16763 -0.70029,-2.867459 -0.84924,-4.580349 -0.13027,-1.498028 -0.4159,-3.160354 -0.63472,-3.694059 -0.65897,-1.607219 -2.41876,-4.252746 -3.86498,-5.810299 -0.74942,-0.807113 -1.61307,-1.8366 -1.91924,-2.28775 l -0.55666,-0.820273 -2.04714,0.156496 c -3.21999,0.246162 -5.56497,-0.533143 -7.68431,-2.553725 -1.29497,-1.234612 -1.83004,-2.69376 -2.03321,-5.544629 -0.10289,-1.443765 -0.0298,-2.118214 0.35399,-3.266417 l 0.48365,-1.446972 -1.47003,-1.464179 c -1.73637,-1.729458 -2.86197,-3.772702 -3.27894,-5.95206 -0.31213,-1.631401 -1.38129,-4.125341 -2.132,-4.973146 -0.79599,-0.898926 -1.42221,-3.344167 -1.42221,-5.5533616 0,-1.820553 0.0654,-2.130157 0.58172,-2.754687 1.33862,-1.619099 6.13779,-2.130382 10.00388,-1.06577 1.15332,0.317592 2.59192,0.519192 3.7049,0.519192 2.17588,0 5.36378,0.862879 7.5694,2.048825 l 1.48004,0.79581 1.26111,-0.965436 c 1.70219,-1.303105 2.11117,-1.433608 4.59816,-1.467231 1.84714,-0.02497 2.32742,0.05825 3.45623,0.5989 2.59179,1.241344 4.35325,3.9707136 4.72765,7.3254606 l 0.15875,1.422437 1.4569,0.536303 c 0.80129,0.294963 1.93164,0.819455 2.51189,1.165538 0.58024,0.346082 1.7481,0.864476 2.59523,1.151989 2.07705,0.704933 6.54722,3.109653 8.84752,4.759493 1.03215,0.740289 3.34849,2.869198 5.14744,4.730914 2.69063,2.784518 3.72902,3.673999 5.85411,5.014575 3.06886,1.935934 6.60516,4.999 7.58337,6.568522 2.06188,3.308286 3.06507,10.574269 2.24882,16.287962 -0.2192,1.534397 -0.72553,3.990646 -1.12518,5.458331 -0.74345,2.730248 -2.51079,7.417609 -3.201,8.489701 -0.37793,0.587052 -0.34398,0.657966 1.82444,3.809904 2.55536,3.714374 5.31489,8.801253 6.5145,12.008727 1.00039,2.67481 2.41977,7.8319 2.75739,10.01851 0.3594,2.32771 0.29918,6.310421 -0.12763,8.440321 -0.77142,3.84958 -2.62287,7.79216 -5.51941,11.75328 -4.16384,5.6942 -7.09907,7.98634 -21.34542,16.66874 l -8.05148,4.90696 0.12612,0.76674 c 0.38393,2.33385 0.62385,6.4003 0.75374,12.77506 0.25578,12.55329 -0.78261,19.83277 -3.99274,27.99055 -2.63925,6.70702 -4.84369,10.28192 -8.12693,13.17933 -5.01214,4.42314 -9.2497,6.24381 -15.08547,6.4815 -1.57318,0.0641 -3.07485,0.0602 -3.33706,-0.008 z m 5.89275,-11.00812 c 1.52199,-0.47844 4.45477,-2.3036 6.507,-4.0495 2.15295,-1.8316 5.1708,-6.92645 6.292,-10.62241 1.66487,-5.48818 2.86762,-17.77987 2.52787,-25.83423 -0.0987,-2.34046 -0.24761,-4.77253 -0.33086,-5.4046 l -0.15136,-1.14923 -2.28143,1.39182 c -7.61604,4.64625 -15.51369,11.0553 -19.04883,15.4584 -2.94633,3.66973 -6.70663,10.43588 -7.34984,13.22508 -1.15325,5.00095 -9e-4,10.45039 2.90475,13.73988 2.94375,3.33228 6.90842,4.5092 10.9307,3.24479 z M 60.569212,121.96974 c 2.10983,-1.95733 3.70604,-3.76224 6.357297,-7.18846 0.373564,-0.48276 1.337419,-1.86024 2.141904,-3.06107 5.587152,-8.3398 8.168737,-13.728811 9.645676,-20.135181 0.501869,-2.1769 0.617376,-3.29421 0.626985,-6.06482 0.01127,-3.250869 -0.01721,-3.456545 -0.665042,-4.803568 -1.126412,-2.342101 -3.044369,-3.228124 -5.624318,-2.598214 -2.482686,0.606161 -6.390167,3.88233 -8.538773,7.159192 -1.126985,1.71878 -3.584495,6.66236 -4.580607,9.21444 -2.63749,6.757371 -4.260058,19.339991 -3.238326,25.112411 0.389798,2.20223 1.063907,4.60926 1.290859,4.60926 0.09105,0 1.254005,-1.00979 2.584345,-2.24399 z M 142.19856,37.687615 c 1.5823,-0.876482 2.23008,-1.97972 2.20645,-3.757829 -0.0228,-1.716022 -0.86087,-3.552753 -2.37553,-5.206276 l -1.08359,-1.18291 -0.93966,2.032884 c -0.51682,1.118085 -0.93967,2.124036 -0.93967,2.235444 0,0.111411 -0.21998,0.322379 -0.48883,0.468823 -0.58793,0.320236 -1.20338,-0.02644 -3.19533,-1.799914 -0.73317,-0.652758 -1.40206,-1.11659 -1.48642,-1.030736 -0.3142,0.319785 -0.36534,2.925241 -0.0826,4.210902 0.37638,1.711733 1.5528,3.065469 3.46551,3.987878 1.88451,0.908813 3.33222,0.921093 4.91971,0.04174 z m 13.02645,-17.763734 c 2.01613,-1.04924 2.82979,-2.332217 3.057,-4.820236 0.17536,-1.920265 -0.1105,-3.083678 -1.03131,-4.197433 -1.91358,-2.3145306 -5.42003,-2.3601096 -8.0538,-0.104685 l -0.71509,0.612359 1.84875,1.755953 c 1.83441,1.74233 2.21743,2.491181 1.54789,3.026377 -0.16387,0.130993 -0.96834,0.498596 -1.7877,0.816895 -0.81937,0.318297 -1.48976,0.706036 -1.48976,0.861634 0,0.401964 1.379,1.534992 2.50279,2.056373 1.24705,0.578561 3.00152,0.57548 4.12123,-0.0072 z"
       id="path117" />
  </g>
</svg>
